# xmcd
#
# Track frame offsets:
#	150
#	13584
#	28249
#	43734
#	55767
#	66931
#	82933
#	97447
#	116054
#	130835
#	138259
#
# Disc length: 2307
#
# Revision: 1
# Processed by: cddbd v1.5.1PL0 Copyright (c) Steve Scherf et al.
# Submitted via: ExactAudioCopy v0.90a11
# Normalized: r0:TRMNUM
#
DISCID=9a09010b
DTITLE=Legendary Shack Shakers - 2002-03-21 - Shank Hall - Milwaukee, WI
DYEAR=1900
DGENRE=
TTITLE0=I Ain't Home
TTITLE1=She Never Wake Up
TTITLE2=The CB Song
TTITLE3=Help Me From My Brain
TTITLE4=White Lightening
TTITLE5=Padre Blues
TTITLE6=Hunkerdown
TTITLE7=Wild Wild Love
TTITLE8=Back To Paducah
TTITLE9=Shake Right Home
TTITLE10=Hip Shake
EXTD=
EXTT0=
EXTT1=
EXTT2=
EXTT3=
EXTT4=
EXTT5=
EXTT6=
EXTT7=
EXTT8=
EXTT9=
EXTT10=
PLAYORDER=
